<?xml version="1.0" encoding="UTF-8" standalone="no"?>
<svg
   xmlns:dc="http://purl.org/dc/elements/1.1/"
   xmlns:cc="http://creativecommons.org/ns#"
   xmlns:rdf="http://www.w3.org/1999/02/22-rdf-syntax-ns#"
   xmlns:svg="http://www.w3.org/2000/svg"
   xmlns="http://www.w3.org/2000/svg"
   xmlns:sodipodi="http://sodipodi.sourceforge.net/DTD/sodipodi-0.dtd"
   xmlns:inkscape="http://www.inkscape.org/namespaces/inkscape"
   height="512px"
   id="Layer_1"
   style="enable-background:new 0 0 512 512;"
   version="1.1"
   viewBox="0 0 512 512"
   width="512px"
   xml:space="preserve"
   inkscape:version="0.91 r13725"
   sodipodi:docname="calendar.svg"><metadata
     id="metadata13"><rdf:RDF><cc:Work
         rdf:about=""><dc:format>image/svg+xml</dc:format><dc:type
           rdf:resource="http://purl.org/dc/dcmitype/StillImage" /></cc:Work></rdf:RDF></metadata><defs
     id="defs11" /><sodipodi:namedview
     pagecolor="#ffffff"
     bordercolor="#666666"
     borderopacity="1"
     objecttolerance="10"
     gridtolerance="10"
     guidetolerance="10"
     inkscape:pageopacity="0"
     inkscape:pageshadow="2"
     inkscape:window-width="726"
     inkscape:window-height="480"
     id="namedview9"
     showgrid="false"
     inkscape:zoom="0.4609375"
     inkscape:cx="256"
     inkscape:cy="253.83051"
     inkscape:window-x="0"
     inkscape:window-y="0"
     inkscape:window-maximized="0"
     inkscape:current-layer="Layer_1" /><path
     d="M448.9,64H416v40.7c0,22.5-23.2,39.3-47.2,39.3S320,127.2,320,104.7V64H192v40.7c0,22.5-24,39.3-48,39.3s-48-16.8-48-39.3  V64H63.1C45.9,64,32,77.3,32,93.4v357.5C32,467,45.9,480,63.1,480h385.8c17.2,0,31.1-13,31.1-29.2V93.4C480,77.3,466.1,64,448.9,64z   M432,419.9c0,6.6-5.8,12-12.8,12L92.7,432c-7-0.3-12.7-5.6-12.7-12.2V188.3c0-6.9,5.9-12.3,13.3-12.3h325.5  c7.3,0,13.2,5.3,13.2,12.1V419.9z"
     id="path3"
     style="fill:#ffffff" /><path
     d="M176,96c0,17.7-14.3,32-32,32l0,0c-17.7,0-32-14.3-32-32V64c0-17.7,14.3-32,32-32l0,0c17.7,0,32,14.3,32,32V96z"
     id="path5"
     style="fill:#ffffff" /><path
     d="M400,96c0,17.7-14.3,32-32,32l0,0c-17.7,0-32-14.3-32-32V64c0-17.7,14.3-32,32-32l0,0c17.7,0,32,14.3,32,32V96z"
     id="path7"
     style="fill:#ffffff" /></svg>